<svg width="18" height="9" viewBox="0 0 18 9" fill="none" xmlns="http://www.w3.org/2000/svg">
<path d="M16.2551 0.00512719C16.0906 0.00417608 15.9275 0.0357079 15.7752 0.0979136C15.6229 0.160119 15.4844 0.251775 15.3676 0.367626L9.64261 6.10512C9.52641 6.22228 9.38816 6.31527 9.23584 6.37873C9.08351 6.44219 8.92013 6.47486 8.75511 6.47486C8.5901 6.47486 8.42672 6.44219 8.27439 6.37873C8.12207 6.31527 7.98382 6.22228 7.86761 6.10512L2.14261 0.367626C1.90724 0.132247 1.58799 1.31246e-05 1.25511 1.31246e-05C0.922238 1.31246e-05 0.602994 0.132247 0.367615 0.367626C0.132235 0.603006 0 0.922248 0 1.25512C0 1.41995 0.0324649 1.58316 0.0955403 1.73544C0.158616 1.88771 0.251066 2.02608 0.367615 2.14262L6.10511 7.86761C6.81754 8.55207 7.76717 8.93433 8.75511 8.93433C9.74306 8.93433 10.6927 8.55207 11.4051 7.86761L17.1426 2.14262C17.2598 2.02642 17.3528 1.88817 17.4162 1.73584C17.4797 1.58352 17.5124 1.42014 17.5124 1.25512C17.5124 1.09011 17.4797 0.926728 17.4162 0.774405C17.3528 0.622081 17.2598 0.48383 17.1426 0.367626C17.0258 0.251775 16.8873 0.160119 16.735 0.0979136C16.5827 0.0357079 16.4196 0.00417608 16.2551 0.00512719Z" fill="#7AA05F"/>
</svg>
