<svg width="17" height="16" viewBox="0 0 17 16" fill="none" xmlns="http://www.w3.org/2000/svg">
<path d="M7.21875 8.20228L6.13125 7.13352C5.99375 6.99603 5.822 6.92728 5.616 6.92728C5.41 6.92728 5.23175 7.00228 5.08125 7.15228C4.94375 7.28978 4.875 7.46478 4.875 7.67728C4.875 7.88978 4.94375 8.06478 5.08125 8.20228L6.69375 9.81478C6.84375 9.96478 7.01875 10.0398 7.21875 10.0398C7.41875 10.0398 7.59375 9.96478 7.74375 9.81478L10.9312 6.62728C11.0813 6.47728 11.153 6.30228 11.1465 6.10227C11.14 5.90228 11.0682 5.72728 10.9312 5.57728C10.7812 5.42728 10.6032 5.34928 10.3973 5.34328C10.1912 5.33728 10.013 5.40903 9.8625 5.55853L7.21875 8.20228ZM5.11875 14.9898L4.03125 13.1523L1.96875 12.7023C1.78125 12.6648 1.63125 12.568 1.51875 12.412C1.40625 12.256 1.3625 12.084 1.3875 11.896L1.59375 9.77728L0.1875 8.16477C0.0625 8.02728 0 7.86478 0 7.67728C0 7.48978 0.0625 7.32728 0.1875 7.18978L1.59375 5.57728L1.3875 3.45853C1.3625 3.27103 1.40625 3.09903 1.51875 2.94253C1.63125 2.78603 1.78125 2.68928 1.96875 2.65228L4.03125 2.20228L5.11875 0.364776C5.21875 0.202276 5.35625 0.0927756 5.53125 0.0362756C5.70625 -0.0202244 5.88125 -0.0107244 6.05625 0.0647756L8.00625 0.889776L9.95625 0.0647756C10.1313 -0.0102244 10.3063 -0.0197244 10.4813 0.0362756C10.6562 0.0922756 10.7938 0.201776 10.8938 0.364776L11.9812 2.20228L14.0437 2.65228C14.2312 2.68978 14.3812 2.78678 14.4937 2.94328C14.6062 3.09978 14.65 3.27153 14.625 3.45853L14.4187 5.57728L15.825 7.18978C15.95 7.32728 16.0125 7.48978 16.0125 7.67728C16.0125 7.86478 15.95 8.02728 15.825 8.16477L14.4187 9.77728L14.625 11.896C14.65 12.0835 14.6062 12.2555 14.4937 12.412C14.3812 12.5685 14.2312 12.6653 14.0437 12.7023L11.9812 13.1523L10.8938 14.9898C10.7938 15.1523 10.6562 15.2618 10.4813 15.3183C10.3063 15.3748 10.1313 15.3653 9.95625 15.2898L8.00625 14.4648L6.05625 15.2898C5.88125 15.3648 5.70625 15.3743 5.53125 15.3183C5.35625 15.2623 5.21875 15.1528 5.11875 14.9898Z" fill="#333333"/>
</svg>
