<svg width="25" height="25" viewBox="0 0 25 25" fill="none" xmlns="http://www.w3.org/2000/svg">
  <g clip-path="url(#clip0_142_1258)">
    <path d="M23.6594 4.24688C23.3664 3.89525 22.9995 3.61245 22.5849 3.41856C22.1703 3.22467 21.7181 3.12444 21.2604 3.125H4.41875L4.375 2.75938C4.28547 1.99939 3.92019 1.29868 3.34843 0.790081C2.77666 0.281483 2.03815 0.000356035 1.27292 0L1.04167 0C0.7654 0 0.500448 0.109747 0.305097 0.305097C0.109747 0.500448 0 0.7654 0 1.04167C0 1.31793 0.109747 1.58289 0.305097 1.77824C0.500448 1.97359 0.7654 2.08333 1.04167 2.08333H1.27292C1.52806 2.08337 1.77431 2.17704 1.96497 2.34658C2.15563 2.51612 2.27744 2.74974 2.30729 3.00313L3.74063 15.1906C3.88943 16.4581 4.49841 17.6269 5.45199 18.475C6.40556 19.3232 7.63735 19.7917 8.91354 19.7917H19.7917C20.0679 19.7917 20.3329 19.6819 20.5282 19.4866C20.7236 19.2912 20.8333 19.0263 20.8333 18.75C20.8333 18.4737 20.7236 18.2088 20.5282 18.0134C20.3329 17.8181 20.0679 17.7083 19.7917 17.7083H8.91354C8.26881 17.7065 7.64042 17.5053 7.11452 17.1324C6.58862 16.7594 6.19095 16.2329 5.97604 15.625H18.3927C19.6138 15.6251 20.7962 15.1961 21.7332 14.413C22.6701 13.6298 23.3021 12.5424 23.5188 11.3406L24.3365 6.80521C24.4181 6.35522 24.3997 5.89278 24.2827 5.45066C24.1657 5.00855 23.9529 4.59758 23.6594 4.24688ZM22.2917 6.43542L21.4729 10.9708C21.3428 11.6927 20.963 12.3458 20.3999 12.8158C19.8367 13.2858 19.1262 13.5428 18.3927 13.5417H5.64479L4.66458 5.20833H21.2604C21.4134 5.20742 21.5648 5.24023 21.7037 5.30443C21.8426 5.36864 21.9656 5.46265 22.0641 5.5798C22.1625 5.69695 22.234 5.83435 22.2733 5.98223C22.3126 6.13011 22.3189 6.28484 22.2917 6.43542Z" fill="#333333"/>
    <path d="M7.28646 25.0036C8.43705 25.0036 9.36979 24.0708 9.36979 22.9202C9.36979 21.7697 8.43705 20.8369 7.28646 20.8369C6.13587 20.8369 5.20312 21.7697 5.20312 22.9202C5.20312 24.0708 6.13587 25.0036 7.28646 25.0036Z" fill="#333333"/>
    <path d="M17.7083 25.0036C18.8589 25.0036 19.7917 24.0708 19.7917 22.9202C19.7917 21.7697 18.8589 20.8369 17.7083 20.8369C16.5577 20.8369 15.625 21.7697 15.625 22.9202C15.625 24.0708 16.5577 25.0036 17.7083 25.0036Z" fill="#333333"/>
  </g>
  <defs>
    <clipPath id="clip0_142_1258">
      <rect width="25" height="25" fill="white"/>
    </clipPath>
  </defs>
</svg>