<svg width="70" height="70" viewBox="0 0 70 70" fill="none" xmlns="http://www.w3.org/2000/svg">
<circle cx="35" cy="35" r="35" fill="white" fill-opacity="0.2"/>
<path d="M22.6466 50.4577C22.9841 50.6602 23.3666 50.7502 23.7491 50.7502C24.1316 50.7502 24.5591 50.6377 24.8966 50.4352L47.3966 36.9352C48.0716 36.5302 48.4991 35.7877 48.4991 35.0002C48.4991 34.2127 48.0941 33.4702 47.3966 33.0652L24.8966 19.5652C24.5547 19.3578 24.1633 19.2463 23.7634 19.2423C23.3635 19.2383 22.97 19.3421 22.6241 19.5427C21.9266 19.9477 21.4766 20.6902 21.4766 21.5002V48.5002C21.4766 49.3102 21.9041 50.0527 22.6241 50.4577H22.6466Z" fill="white"/>
</svg>
