<svg width="25" height="25" viewBox="0 0 25 25" fill="none" xmlns="http://www.w3.org/2000/svg">
  <g clip-path="url(#clip0_142_1256)">
    <path d="M24.6969 23.223L18.4792 17.0053C20.1736 14.933 21.0067 12.2887 20.8061 9.61941C20.6055 6.95011 19.3867 4.46 17.4017 2.66416C15.4166 0.868314 12.8173 -0.0958716 10.1413 -0.0289634C7.46531 0.0379447 4.91741 1.13083 3.02461 3.02363C1.1318 4.91643 0.0389213 7.46434 -0.0279869 10.1403C-0.094895 12.8163 0.869291 15.4157 2.66513 17.4007C4.46098 19.3857 6.95108 20.6046 9.62038 20.8051C12.2897 21.0057 14.934 20.1726 17.0063 18.4782L23.224 24.6959C23.4204 24.8857 23.6836 24.9906 23.9567 24.9883C24.2298 24.9859 24.4911 24.8764 24.6842 24.6832C24.8773 24.4901 24.9869 24.2288 24.9893 23.9557C24.9916 23.6826 24.8866 23.4195 24.6969 23.223ZM10.4188 18.7511C8.77058 18.7511 7.15942 18.2624 5.78901 17.3467C4.4186 16.431 3.35049 15.1295 2.71976 13.6068C2.08903 12.0841 1.924 10.4085 2.24555 8.79203C2.56709 7.17552 3.36076 5.69066 4.5262 4.52523C5.69164 3.35979 7.1765 2.56611 8.79301 2.24457C10.4095 1.92303 12.0851 2.08806 13.6078 2.71879C15.1305 3.34952 16.432 4.41762 17.3477 5.78803C18.2634 7.15844 18.7521 8.7696 18.7521 10.4178C18.7496 12.6272 17.8708 14.7453 16.3086 16.3076C14.7463 17.8699 12.6281 18.7486 10.4188 18.7511Z" fill="#333333"/>
  </g>
  <defs>
    <clipPath id="clip0_142_1256">
      <rect width="25" height="25" fill="white"/>
    </clipPath>
  </defs>
</svg>