<svg width="26" height="29" viewBox="0 0 26 29" fill="none" xmlns="http://www.w3.org/2000/svg">
<path d="M17.5 5.5L13 1L8.5 5.5M13 1V16M5.50035 11.5C4.10252 11.5 3.40361 11.5 2.85229 11.7284C2.11721 12.0328 1.53284 12.6172 1.22836 13.3523C1 13.9036 1 14.6022 1 16V23.2C1 24.8802 1 25.7197 1.32698 26.3614C1.6146 26.9259 2.07321 27.3857 2.6377 27.6733C3.2788 28 4.11849 28 5.79537 28H20.2054C21.8822 28 22.7207 28 23.3618 27.6733C23.9263 27.3857 24.3857 26.9259 24.6733 26.3614C25 25.7203 25 24.8815 25 23.2046V16C25 14.6022 24.9998 13.9036 24.7715 13.3523C24.467 12.6172 23.8831 12.0328 23.148 11.7284C22.5967 11.5 21.8978 11.5 20.5 11.5" stroke="#445438" stroke-width="2" stroke-linecap="round" stroke-linejoin="round"/>
</svg>
