<svg width="12" height="12" viewBox="0 0 12 12" fill="none" xmlns="http://www.w3.org/2000/svg">
<path d="M5.75 0.5C5.8163 0.5 5.87987 0.526358 5.92676 0.573242C5.97364 0.620127 6 0.683697 6 0.75V5.5H10.75C10.8163 5.5 10.8799 5.52636 10.9268 5.57324C10.9736 5.62013 11 5.6837 11 5.75C11 5.8163 10.9736 5.87987 10.9268 5.92676C10.8799 5.97364 10.8163 6 10.75 6H6V10.75C6 10.8163 5.97364 10.8799 5.92676 10.9268C5.87987 10.9736 5.8163 11 5.75 11C5.6837 11 5.62013 10.9736 5.57324 10.9268C5.52636 10.8799 5.5 10.8163 5.5 10.75V6H0.75C0.683697 6 0.620127 5.97364 0.573242 5.92676C0.526358 5.87987 0.5 5.8163 0.5 5.75C0.5 5.6837 0.526359 5.62013 0.573242 5.57324C0.620126 5.52636 0.683696 5.5 0.75 5.5H5.5V0.75C5.5 0.683696 5.52636 0.620126 5.57324 0.573242C5.62013 0.526359 5.6837 0.5 5.75 0.5Z" fill="#2C3A22" stroke="#2C3A22"/>
</svg>
